<svg version="1.1" id="Layer_1" xmlns="http://www.w3.org/2000/svg" xmlns:xlink="http://www.w3.org/1999/xlink" x="0px" y="0px"
	 width="100%" viewBox="0 0 128 128" enable-background="new 0 0 128 128" xml:space="preserve">
<path fill="#1976D2" opacity="1.000000" stroke="none" 
	d="
M1.000000,119.000000 
	C1.000000,83.312439 1.000000,47.624878 1.332180,11.355225 
	C4.776239,7.515422 7.888120,4.257711 11.000000,1.000000 
	C46.687561,1.000000 82.375122,1.000000 118.644775,1.332181 
	C122.484581,4.776242 125.742287,7.888122 129.000000,11.000000 
	C129.000000,46.687561 129.000000,82.375122 128.667816,118.644775 
	C125.223770,122.484581 122.111885,125.742294 119.000000,129.000000 
	C109.312439,129.000000 99.624878,129.000000 89.468964,128.531342 
	C89.000618,113.810287 89.000618,99.557899 89.000618,84.999756 
	C92.430443,84.999756 95.243622,85.123634 98.036713,84.940720 
	C99.205864,84.864143 101.025307,84.440002 101.368118,83.656891 
	C103.991173,77.664978 106.322937,71.545540 109.003525,64.817528 
	C101.866165,64.817528 95.607735,64.817528 89.008682,64.817528 
	C89.008682,59.612873 89.033669,54.815285 89.000526,50.018093 
	C88.975433,46.385681 90.930237,44.971264 94.340286,45.006962 
	C97.778503,45.042957 101.217400,45.014889 105.000732,45.014889 
	C105.000732,41.286011 105.000740,38.152710 105.000740,35.019405 
	C105.000740,31.760098 105.000732,28.500788 105.000732,24.999760 
	C99.834892,24.999760 95.357491,24.970640 90.880577,25.005007 
	C74.964592,25.127176 65.118355,35.002674 65.004730,50.956989 
	C64.972038,55.547569 64.999718,60.138584 64.999718,65.247162 
	C59.272209,65.247162 54.210106,65.247162 49.262951,65.247162 
	C49.262951,72.047340 49.262951,78.312683 49.262951,85.101822 
	C54.571064,85.101822 59.633793,85.101822 65.000000,85.101822 
	C65.000000,100.087608 65.000000,114.543800 65.000000,129.000000 
	C47.312439,129.000000 29.624876,129.000000 11.355225,128.667816 
	C7.515424,125.223763 4.257712,122.111885 1.000000,119.000000 
z"/>
<path fill="#FAFAFA" opacity="1.000000" stroke="none" 
	d="
M65.468636,129.000000 
	C65.000000,114.543800 65.000000,100.087608 65.000000,85.101822 
	C59.633793,85.101822 54.571064,85.101822 49.262951,85.101822 
	C49.262951,78.312683 49.262951,72.047340 49.262951,65.247162 
	C54.210106,65.247162 59.272209,65.247162 64.999718,65.247162 
	C64.999718,60.138584 64.972038,55.547569 65.004730,50.956989 
	C65.118355,35.002674 74.964592,25.127176 90.880577,25.005007 
	C95.357491,24.970640 99.834892,24.999760 105.000732,24.999760 
	C105.000732,28.500788 105.000740,31.760098 105.000740,35.019405 
	C105.000740,38.152710 105.000732,41.286011 105.000732,45.014889 
	C101.217400,45.014889 97.778503,45.042957 94.340286,45.006962 
	C90.930237,44.971264 88.975433,46.385681 89.000526,50.018093 
	C89.033669,54.815285 89.008682,59.612873 89.008682,64.817528 
	C95.607735,64.817528 101.866165,64.817528 109.003525,64.817528 
	C106.322937,71.545540 103.991173,77.664978 101.368118,83.656891 
	C101.025307,84.440002 99.205864,84.864143 98.036713,84.940720 
	C95.243622,85.123634 92.430443,84.999756 89.000618,84.999756 
	C89.000618,99.557899 89.000618,113.810287 89.000305,128.531342 
	C81.312424,129.000000 73.624847,129.000000 65.468636,129.000000 
z"/>
<path fill="#FAFAFA" opacity="1.000000" stroke="none" 
	d="
M10.513435,1.000000 
	C7.888120,4.257711 4.776239,7.515422 1.332180,10.886567 
	C1.000000,7.747543 1.000000,4.495087 1.000000,1.000000 
	C4.006597,1.000000 7.016734,1.000000 10.513435,1.000000 
z"/>
<path fill="#FAFAFA" opacity="1.000000" stroke="none" 
	d="
M129.000000,10.513435 
	C125.742287,7.888122 122.484581,4.776242 119.113434,1.332181 
	C122.252457,1.000000 125.504913,1.000000 129.000000,1.000000 
	C129.000000,4.006597 129.000000,7.016734 129.000000,10.513435 
z"/>
<path fill="#FAFAFA" opacity="1.000000" stroke="none" 
	d="
M1.000000,119.486565 
	C4.257712,122.111885 7.515424,125.223763 10.886568,128.667816 
	C7.747543,129.000000 4.495087,129.000000 1.000000,129.000000 
	C1.000000,125.993401 1.000000,122.983269 1.000000,119.486565 
z"/>
<path fill="#FAFAFA" opacity="1.000000" stroke="none" 
	d="
M119.486565,129.000000 
	C122.111885,125.742294 125.223770,122.484581 128.667816,119.113434 
	C129.000000,122.252457 129.000000,125.504913 129.000000,129.000000 
	C125.993401,129.000000 122.983269,129.000000 119.486565,129.000000 
z"/>
</svg>