<svg version="1.1" id="Layer_1" xmlns="http://www.w3.org/2000/svg" xmlns:xlink="http://www.w3.org/1999/xlink" x="0px" y="0px"
	 width="100%" viewBox="0 0 512 512" enable-background="new 0 0 512 512" xml:space="preserve">
<path fill="#0077B7" opacity="1.000000" stroke="none" 
	d="
M1.216767,479.309265 
	C1.000000,331.312439 1.000000,183.624878 1.000000,35.468658 
	C3.054473,31.020569 2.477175,26.358294 5.009655,22.316103 
	C10.018576,14.321164 16.428816,8.084915 24.732754,3.773697 
	C28.349854,1.895781 32.482758,2.135818 36.693375,1.220498 
	C183.354233,1.000000 329.708466,1.000000 476.531342,1.000000 
	C492.017303,2.413360 502.224182,10.702364 509.505341,23.421583 
	C511.854279,27.524820 511.725769,32.021591 512.778809,36.689934 
	C513.000000,183.354233 513.000000,329.708466 513.000000,476.531342 
	C511.586639,492.017303 503.297607,502.224243 490.578430,509.505402 
	C486.475220,511.854279 481.978424,511.725830 477.310059,512.778809 
	C330.645782,513.000000 184.291550,513.000000 37.468658,513.000000 
	C21.741302,511.579651 11.539584,503.010803 4.206230,490.132141 
	C2.295850,486.777161 2.744709,483.012146 1.216767,479.309265 
z"/>
<path fill="#FFFFFF" opacity="1.000000" stroke="none" 
	d="
M513.000000,36.531342 
	C510.386475,31.575596 508.764252,25.705900 505.224884,20.689171 
	C498.269318,10.830277 488.874725,4.677607 477.139374,1.354557 
	C488.098358,1.000000 499.198303,1.098471 510.293884,0.922853 
	C512.721130,0.884436 513.093994,1.493104 513.063843,3.762311 
	C512.920837,14.527485 513.000000,25.295610 513.000000,36.531342 
z"/>
<path fill="#FFFFFF" opacity="1.000000" stroke="none" 
	d="
M477.468658,513.000000 
	C482.424438,510.386505 488.294128,508.764252 493.310883,505.224884 
	C503.169708,498.269318 509.322418,488.874695 512.645447,477.139374 
	C513.000000,488.098358 512.901550,499.198303 513.077148,510.293884 
	C513.115540,512.721130 512.506897,513.094055 510.237671,513.063843 
	C499.472504,512.920837 488.704376,513.000000 477.468658,513.000000 
z"/>
<path fill="#FFFFFF" opacity="1.000000" stroke="none" 
	d="
M36.531342,1.000000 
	C31.671415,3.506474 25.915825,5.112658 21.009460,8.507012 
	C12.417315,14.451289 6.436355,22.406862 3.079578,32.277611 
	C2.744274,33.263592 2.399043,34.071918 1.352976,34.890484 
	C1.000000,24.566071 1.106275,14.130258 0.921297,3.699608 
	C0.877938,1.254641 1.516533,0.908598 3.767984,0.937673 
	C14.531357,1.076672 25.297516,1.000000 36.531342,1.000000 
z"/>
<path fill="#FFFFFF" opacity="1.000000" stroke="none" 
	d="
M1.000000,479.468658 
	C4.579550,481.693878 4.692383,486.289642 6.734888,489.860626 
	C13.594145,501.852936 23.790142,508.743011 36.860626,512.645447 
	C25.903597,513.000000 14.805709,512.903931 3.711965,513.075684 
	C1.303003,513.112976 0.899959,512.531616 0.934346,510.244415 
	C1.086201,500.143982 1.000000,490.040009 1.000000,479.468658 
z"/>
<path fill="#FFFFFF" opacity="1.000000" stroke="none" 
	d="
M459.000000,400.000000 
	C459.000000,413.996338 458.778992,427.497559 459.077301,440.987305 
	C459.278046,450.067749 453.181244,456.411896 443.926392,456.153137 
	C425.445862,455.636475 406.925720,455.558319 388.452026,456.185059 
	C379.117310,456.501709 372.835907,449.806641 372.938141,440.350037 
	C373.145325,421.190796 373.000000,402.027802 373.000000,382.866333 
	C373.000000,357.873108 373.259644,332.876099 372.891418,307.888275 
	C372.704956,295.236328 369.800323,283.139862 362.199982,272.510834 
	C355.908234,263.711792 347.359375,259.558411 336.849762,257.858856 
	C326.762909,256.227661 317.400879,257.408997 308.378784,261.949280 
	C299.568787,266.382843 293.968231,273.503937 289.712280,282.385101 
	C282.640686,297.141815 280.870117,312.612549 280.943695,328.661255 
	C281.118561,366.816772 281.002716,404.973633 280.997742,443.129944 
	C280.996704,451.173584 276.259918,455.992371 268.339539,455.996674 
	C249.344696,456.006989 230.344345,455.738831 211.357941,456.138977 
	C204.540161,456.282623 197.858673,449.204620 197.874039,442.797668 
	C198.066391,362.653229 197.996933,282.508148 198.005264,202.363251 
	C198.006012,195.048065 202.952850,190.015900 210.167587,190.007767 
	C229.995514,189.985397 249.823471,189.991272 269.651428,190.004990 
	C276.181915,190.009521 280.910400,194.762344 280.982727,201.495361 
	C281.058746,208.574829 280.999786,215.655777 280.999786,224.095291 
	C283.963165,220.463501 286.151031,218.000305 288.098328,215.359680 
	C299.365356,200.080917 315.361481,192.182327 333.147491,188.261322 
	C348.310577,184.918549 363.914703,184.973877 379.420807,186.977600 
	C394.503021,188.926559 408.425568,193.580750 420.625397,203.043610 
	C433.981720,213.403519 442.717072,226.754623 448.326996,242.570114 
	C453.211182,256.339661 455.771484,270.438843 457.081726,284.947906 
	C460.526947,323.098450 458.338257,361.318329 459.000000,400.000000 
z"/>
<path fill="#FFFFFF" opacity="1.000000" stroke="none" 
	d="
M159.000000,407.000000 
	C159.000000,418.825592 159.015503,430.151215 158.995132,441.476776 
	C158.978546,450.691681 153.664108,455.987061 144.414749,455.995209 
	C126.093948,456.011353 107.773125,456.011414 89.452332,455.994690 
	C81.333305,455.987305 76.005844,450.652466 76.005005,442.512939 
	C75.996735,362.567596 75.998299,282.622253 76.002823,202.676926 
	C76.003242,195.192719 81.160049,190.007584 88.605598,190.003479 
	C107.426056,189.993073 126.251198,190.239853 145.064560,189.874420 
	C151.971634,189.740250 159.102737,194.918503 159.069473,204.638336 
	C158.913254,250.273270 159.000000,295.909027 159.000000,341.544495 
	C159.000000,363.196320 159.000000,384.848175 159.000000,407.000000 
z"/>
<path fill="#FFFFFF" opacity="1.000000" stroke="none" 
	d="
M161.757294,142.611801 
	C156.700699,149.185471 151.275711,154.720093 144.117569,158.507736 
	C133.344543,164.208115 122.375961,167.140671 109.917915,165.230591 
	C96.997643,163.249664 86.576279,157.501053 77.729187,148.245193 
	C69.930344,140.086014 65.514870,130.415253 63.958733,119.244339 
	C60.785854,96.467522 70.319351,79.191605 88.225761,66.672012 
	C98.916977,59.197048 111.464844,56.458969 125.067703,58.752640 
	C137.003922,60.765282 147.019012,65.721313 155.467529,74.023979 
	C172.695709,90.954720 176.576843,119.090385 163.096085,139.616928 
	C162.571304,140.415970 162.325485,141.398224 161.757294,142.611801 
z"/>
</svg>