<svg version="1.1" id="Layer_1" xmlns="http://www.w3.org/2000/svg" xmlns:xlink="http://www.w3.org/1999/xlink" x="0px" y="0px"
	 width="100%" viewBox="0 0 512 512" enable-background="new 0 0 512 512" xml:space="preserve">
<path fill="#F61C0D" opacity="1.000000" stroke="none" 
	d="
M1.221126,350.378632 
	C1.000000,287.979095 1.000000,225.958206 1.000000,163.468658 
	C3.023869,157.012894 2.469143,150.554077 4.829420,144.551773 
	C16.726091,114.297958 37.329552,92.731537 67.615120,80.555527 
	C81.585251,74.938972 96.244080,72.928497 111.094467,72.903732 
	C208.397095,72.741486 305.700165,72.749855 403.002930,72.868828 
	C429.760040,72.901543 454.376373,80.066475 475.310852,97.267723 
	C492.009552,110.988541 504.193970,128.065277 510.458557,148.955154 
	C512.228699,154.857941 512.264038,161.097549 512.779541,167.621155 
	C513.000000,227.020889 513.000000,286.041779 513.000000,345.531342 
	C512.141357,349.557404 512.241455,353.217072 511.858459,356.825134 
	C510.177734,372.658020 502.527832,385.878143 493.198456,398.163177 
	C475.086884,422.012787 450.765808,435.647949 421.280640,439.819153 
	C414.597076,440.764648 407.739136,441.229980 400.889893,441.225372 
	C304.924988,441.160980 208.960052,441.194458 112.995110,441.170837 
	C89.726318,441.165100 67.661438,436.431549 47.972237,423.455750 
	C26.524052,409.320770 11.620966,390.033356 3.636631,365.528442 
	C2.074871,360.735199 2.440892,355.641785 1.221126,350.378632 
z"/>
<path fill="#FFFFFF" opacity="1.000000" stroke="none" 
	d="
M1.000000,350.468658 
	C4.514253,354.336761 4.069354,359.976868 5.795834,364.926819 
	C17.173672,397.547882 38.476746,420.206970 71.112823,432.094330 
	C80.836983,435.636292 90.755768,437.262177 101.057716,438.208893 
	C115.013336,439.491333 128.923523,438.908051 142.841263,438.930084 
	C230.144958,439.068390 317.449188,439.107208 404.752716,438.925720 
	C426.991791,438.879486 448.155792,433.351593 466.461243,420.615631 
	C489.920502,404.293945 505.493011,382.122345 511.106781,353.562317 
	C511.581482,351.147247 511.865387,348.735718 512.619141,346.161316 
	C513.000000,400.305084 512.966553,454.610229 513.083679,508.915070 
	C513.090637,512.150879 512.688049,513.107178 509.088837,513.104614 
	C341.009674,512.984375 172.930420,512.982910 4.851297,513.110657 
	C1.129392,513.113464 0.920092,511.965546 0.926184,508.855225 
	C1.029288,456.216095 1.000000,403.576660 1.000000,350.468658 
z"/>
<path fill="#FFFFFF" opacity="1.000000" stroke="none" 
	d="
M513.000000,167.531342 
	C510.855713,160.148026 509.730103,152.019592 506.740601,144.399490 
	C499.100128,124.924423 487.069000,108.628090 470.319000,96.137642 
	C455.532501,85.111435 438.621094,78.638756 420.396576,76.211189 
	C415.251129,75.525803 409.924286,75.021210 404.657349,75.019775 
	C306.237976,74.992859 207.818268,74.865189 109.399399,75.089951 
	C83.115013,75.149971 58.871014,82.818993 38.743633,100.046028 
	C19.951206,116.130470 7.069665,136.264938 2.876553,161.210342 
	C2.781608,161.775177 2.132057,162.246780 1.370604,162.880936 
	C1.000000,110.360725 1.034724,57.721371 0.915814,5.082368 
	C0.908492,1.841093 1.319792,0.893066 4.913736,0.895629 
	C172.992844,1.015538 341.072083,1.017108 509.151184,0.889099 
	C512.878235,0.886261 513.079163,2.042115 513.073303,5.147243 
	C512.971619,59.118912 513.000000,113.090820 513.000000,167.531342 
z"/>
<path fill="#FFFFFF" opacity="1.000000" stroke="none" 
	d="
M317.692322,271.720764 
	C299.686890,280.390076 281.988495,288.824799 264.300659,297.281586 
	C241.495270,308.185181 218.705383,319.121185 195.892136,330.008270 
	C191.062134,332.313263 187.510727,330.207123 187.013031,324.852325 
	C186.936234,324.026215 187.000107,323.187012 187.000107,322.353851 
	C186.999985,279.196716 187.000000,236.039566 187.000000,192.882431 
	C187.000000,192.715805 186.999222,192.549164 187.000122,192.382538 
	C187.047729,183.495605 190.117599,181.491180 197.897552,185.436829 
	C217.001938,195.125748 236.051300,204.923172 255.162247,214.599060 
	C270.662079,222.446655 286.243134,230.133911 301.742706,237.982071 
	C312.016968,243.184433 322.210358,248.546600 332.441498,253.834183 
	C334.828308,255.067719 336.955383,256.377380 337.043488,259.585266 
	C337.132751,262.838074 334.674896,263.722443 332.539429,264.771698 
	C327.749390,267.125214 322.855621,269.267609 317.692322,271.720764 
z"/>
</svg>